PathFileType	4	(X/Y/Z)	..\data\2014029\dynamic\2014029_C4_05.trc
DataRate	CameraRate	NumFrames	NumMarkers	Units	OrigDataRate	OrigDataStartFrame	OrigNumFrames
100.000000	100.000000	4	52	mm	100.000000	97	194
Frame#	Time	L_IAS			L_IPS			R_IPS			R_IAS			L_FTC			L_FLE			L_FME			L_FAX			L_TTC			L_FAL			L_TAM			L_FCC			L_FM1			L_FM2			L_FM5			R_FTC			R_FLE			R_FME			R_FAX			R_TTC			R_FAL			R_TAM			R_FCC			R_FM1			R_FM2			R_FM5			CV7			TV10			SXS			SJN			L_SIA			L_SRS			L_SAA			L_SAE			L_HLE			L_HME			L_UOA			L_RSP			L_UHE			L_HM2			L_HM5			R_SIA			R_SRS			R_SAA			R_SAE			R_HLE			R_HME			R_UOA			R_RSP			R_UHE			R_HM2			R_HM5			
		X1	Y1	Z1	X2	Y2	Z2	X3	Y3	Z3	X4	Y4	Z4	X5	Y5	Z5	X6	Y6	Z6	X7	Y7	Z7	X8	Y8	Z8	X9	Y9	Z9	X10	Y10	Z10	X11	Y11	Z11	X12	Y12	Z12	X13	Y13	Z13	X14	Y14	Z14	X15	Y15	Z15	X16	Y16	Z16	X17	Y17	Z17	X18	Y18	Z18	X19	Y19	Z19	X20	Y20	Z20	X21	Y21	Z21	X22	Y22	Z22	X23	Y23	Z23	X24	Y24	Z24	X25	Y25	Z25	X26	Y26	Z26	X27	Y27	Z27	X28	Y28	Z28	X29	Y29	Z29	X30	Y30	Z30	X31	Y31	Z31	X32	Y32	Z32	X33	Y33	Z33	X34	Y34	Z34	X35	Y35	Z35	X36	Y36	Z36	X37	Y37	Z37	X38	Y38	Z38	X39	Y39	Z39	X40	Y40	Z40	X41	Y41	Z41	X42	Y42	Z42	X43	Y43	Z43	X44	Y44	Z44	X45	Y45	Z45	X46	Y46	Z46	X47	Y47	Z47	X48	Y48	Z48	X49	Y49	Z49	X50	Y50	Z50	X51	Y51	Z51	X52	Y52	Z52	

98	0.97	862.4802246093752	1057.965087890625	-341.4640197753907	658.4625244140626	1052.094482421875	-264.5601501464844	660.3963012695314	1057.484375	-164.3541259765625	865.3144531250002	1067.243896484375	-91.46998596191408	794.3117675781252	960.3134765625002	-407.6112365722657	936.4316406250002	544.8657226562501	-393.0669250488282	954.996520996094	512.6312255859376	-270.4985046386719	904.226257324219	494.0569763183595	-401.7134094238282	967.5715942382815	453.3315429687501	-348.2315673828126	677.4328002929689	199.7968750000001	-378.4526062011719	718.3035278320314	182.9169616699219	-284.8431701660157	606.5319824218751	168.6596374511719	-325.9581909179688	778.373229980469	50.17561340332033	-318.8004455566407	775.1980590820315	74.6156692504883	-358.2500610351563	726.7864379882814	83.7282180786133	-413.616180419922	753.6798095703126	956.9658203125002	-29.16090202331544	769.1524658203127	513.5131835937501	-64.74612426757814	761.3565063476564	494.2248535156251	-194.0017395019532	746.0401000976564	445.9598083496095	-64.85294342041017	818.361022949219	442.9728088378907	-124.3844070434571	723.0938720703126	78.31670379638673	-134.413070678711	748.5831298828126	94.33321380615236	-232.0704498291016	674.0732421875001	21.7738037109375	-181.7391815185547	891.4712524414065	21.06847000122071	-215.3038177490235	891.205505371094	36.26132202148438	-153.6925964355469	854.001892089844	14.67312812805176	-97.79597473144534	754.3902587890626	1592.451904296875	-222.4837341308594	660.3884277343751	1330.843627929688	-213.1272735595704	910.6284179687502	1294.969604492188	-230.6378021240235	879.9878540039065	1489.47119140625	-226.3546600341797	625.9523925781251	1372.122680664063	-307.1098327636719	680.6198120117189	1523.12548828125	-319.0426025390626	722.4145507812501	1516.778442382813	-432.8811340332032	779.4180908203127	1515.054565429688	-444.1879882812501	730.1402587890626	1158.344970703125	-510.8379516601564	708.3127441406251	1154.507690429688	-416.0932617187501	691.8156738281251	1143.371459960938	-460.8075561523439	851.5518798828127	894.437683105469	-475.2103271484376	778.5008544921877	898.086853027344	-527.0083007812501	883.869812011719	817.9675903320315	-470.2405700683595	791.3499755859377	810.615173339844	-535.4979248046876	641.0307617187501	1371.125122070313	-119.168441772461	691.9568481445314	1514.70068359375	-117.1408615112305	745.7307739257814	1514.81494140625	-9.844776153564455	798.667419433594	1516.8046875	0.08738708496093751	750.9746704101564	1168.607055664063	72.57360839843751	730.7943725585939	1150.15625	-17.61461067199707	719.2342529296876	1147.946899414063	41.5461654663086	887.6419677734377	910.454528808594	48.82904434204103	808.365905761719	910.500671386719	95.47171783447267	921.8821411132815	824.6406250000002	49.97884750366212	816.9331054687502	820.879577636719	102.8799743652344	
99	0.98	872.722595214844	1058.227416992188	-340.4416503906251	668.1780395507814	1052.33056640625	-264.7337951660157	669.6986083984376	1057.47119140625	-164.3865051269532	874.5144653320315	1066.721435546875	-90.49785614013673	805.195251464844	961.015808105469	-407.5714416503907	952.4477539062502	546.9485473632814	-391.8642578125001	971.6569824218752	515.0836791992189	-269.5118408203126	921.954284667969	494.939422607422	-400.7456665039064	986.5609130859377	456.312225341797	-347.2129516601563	706.9492797851564	191.2227172851563	-378.4375610351563	748.1146850585939	176.3315124511719	-284.7196960449219	637.1898193359376	156.5866851806641	-326.2349548339844	815.453552246094	47.5764274597168	-319.0964355468751	810.977233886719	71.98736572265626	-358.4019470214844	761.9252319335939	78.52292633056642	-413.6462402343751	762.0969848632814	956.363464355469	-29.05360794067384	774.0114746093752	513.2998046875001	-65.07051849365236	766.0051879882814	494.2399291992189	-194.2825317382813	750.2539672851564	445.9629211425782	-65.10701751708986	822.494567871094	442.2376708984376	-124.8174362182617	723.5647583007814	78.5507278442383	-134.6311187744141	748.9677734375001	94.27725219726564	-232.4042968750001	674.2034301757814	22.13671302795411	-181.9287109375	891.5084228515627	20.93890190124512	-215.3007354736329	891.3369750976565	36.24027633666993	-153.7412719726563	853.9993896484377	14.74449348449707	-97.83626556396487	764.4214477539064	1592.44140625	-222.2770690917969	670.4322509765626	1330.822509765625	-212.4221801757813	920.486022949219	1294.886962890625	-229.9459075927735	889.8885498046877	1489.3818359375	-226.0718383789063	635.6032714843751	1372.110473632813	-306.1017761230469	690.5380249023439	1522.960815429688	-318.3498535156251	731.5867919921876	1516.470703125	-432.108856201172	788.6722412109377	1514.636474609375	-443.8941345214845	734.4500732421876	1158.299438476563	-509.1856689453126	713.9860229492189	1154.990356445313	-414.1359863281251	696.6847534179689	1144.103637695313	-458.7649536132814	851.6115722656252	892.3098144531252	-474.466522216797	778.1400146484377	897.292663574219	-525.5361938476564	882.4678344726565	815.2189941406252	-469.6803588867189	789.3446044921877	809.5383911132815	-534.0649414062501	651.3114624023439	1371.503051757813	-117.9857482910157	702.0751342773439	1514.961181640625	-116.5428161621094	756.0585327148439	1515.477416992188	-9.422745704650881	809.1252441406252	1517.500854492188	0.4725354611873628	763.4057006835939	1169.27978515625	74.0181121826172	743.3861694335939	1150.42431640625	-16.16864204406739	731.7623291015626	1148.198852539063	43.08143997192384	902.8280029296877	912.5328369140627	50.32078552246095	823.6221923828127	911.9558105468752	97.365348815918	937.9589843750002	827.1082763671877	51.52674102783205	833.2319946289065	822.5252075195315	105.1508865356446	
100	0.99	882.9085693359377	1058.376831054688	-339.5252380371094	677.8396606445314	1052.476806640625	-264.9156188964844	679.0521850585939	1057.365112304688	-164.4457092285157	883.7246093750002	1066.090942382813	-89.64196777343751	815.907165527344	961.597106933594	-407.5389404296876	967.8264160156252	548.6671752929689	-390.5972290039064	987.5806884765627	517.2430419921876	-268.4248352050782	939.1242675781252	495.4049072265626	-399.6919250488282	1004.97119140625	459.0357666015626	-346.0886535644532	736.9305419921876	182.1990814208985	-378.4122924804688	778.5148925781252	169.3350067138672	-284.6195373535157	668.6963500976564	143.9829864501953	-326.4530334472657	853.0686645507815	45.03153228759766	-319.5116882324219	847.224060058594	69.29356384277345	-358.6948852539063	797.5845947265627	73.17129516601564	-413.7405090332032	770.570739746094	955.7067871093752	-28.97208404541016	778.8677368164065	513.0620117187501	-65.42449951171876	770.6669921875002	494.2298278808595	-194.6057281494141	754.4634399414064	445.9508056640626	-65.39694976806642	826.6441650390627	441.509246826172	-125.2726364135742	724.0455322265626	78.81258392333986	-134.8663024902344	749.3687744140626	94.24179077148439	-232.7462615966797	674.3293457031251	22.52310943603516	-182.1402893066407	891.555847167969	20.81915664672852	-215.3086242675782	891.472106933594	36.2067985534668	-153.8125	853.9927368164065	14.81441307067871	-97.88951110839847	774.4420166015627	1592.328247070313	-222.1402587890626	680.4494628906251	1330.720581054688	-211.7973785400391	930.3665161132815	1294.714965820313	-229.2661132812501	899.7912597656252	1489.20068359375	-225.806625366211	645.3249511718751	1372.007446289063	-305.2219238281251	700.4958496093751	1522.704345703125	-317.7641296386719	740.8983764648439	1516.064453125	-431.416229248047	798.0355224609377	1514.121459960938	-443.6351623535157	738.8311157226564	1158.2392578125	-507.5639953613282	719.7921752929689	1155.456420898438	-412.211395263672	701.7424316406251	1144.804321289063	-456.7469177246095	851.7421875000002	890.2122802734377	-473.8398437500001	777.798278808594	896.5521240234377	-524.0452270507814	881.1140747070315	812.526550292969	-469.239227294922	787.3114013671877	808.540466308594	-532.5586547851564	661.5579223632814	1371.775268554688	-116.8883056640625	712.1713867187501	1515.12744140625	-116.0412673950196	766.3096923828126	1516.064331054688	-9.064272880554201	819.4595336914065	1518.152465820313	0.766515910625458	775.5715332031252	1169.862426757813	75.39631652832033	755.8198852539064	1150.628295898438	-14.79911327362061	744.0680541992189	1148.360107421875	44.53245544433594	918.006286621094	914.7160644531252	51.84686279296876	838.792419433594	913.3533325195315	99.08199310302737	954.1434326171877	829.7296142578127	53.12757873535158	849.469421386719	824.127380371094	107.1199722290039	
101	1	893.0327758789065	1058.410522460938	-338.7158508300782	687.4680786132814	1052.514526367188	-265.0960388183594	688.4643554687501	1057.157958984375	-164.5280303955078	892.9429321289065	1065.358764648438	-88.89634704589845	826.454528808594	962.0430297851565	-407.499481201172	982.5633544921877	549.9835815429689	-389.2958984375001	1002.747192382813	519.0621337890626	-267.2600097656251	955.7188720703127	495.4345092773439	-398.5770874023439	1022.769897460938	461.4650268554689	-344.8862609863282	767.3432617187501	172.8800811767578	-378.3695373535157	809.493591308594	162.0650634765625	-284.5483093261719	701.0310058593751	131.0518341064453	-326.5923767089844	891.1212158203127	42.63183975219727	-320.0762329101563	883.839538574219	66.61519622802736	-359.1594238281251	833.6781005859377	67.78202056884767	-413.9187622070314	779.103454589844	954.999694824219	-28.91001319885255	783.7083740234377	512.8062133789064	-65.79649353027345	775.326110839844	494.1976623535157	-194.9615173339844	758.6542358398439	445.9266357421876	-65.71446990966798	830.790466308594	440.7946777343751	-125.7339172363282	724.5305175781251	79.10192108154298	-135.1215057373047	749.7920532226564	94.23389434814455	-233.0956573486329	674.4475708007814	22.93644332885743	-182.3778381347657	891.6195068359377	20.70981979370118	-215.3299255371094	891.6093750000002	36.16376113891602	-153.9002990722657	853.981140136719	14.88045978546143	-97.95522308349612	784.4668579101565	1592.10205078125	-222.0722198486329	690.4434814453126	1330.532592773438	-211.2527770996094	940.2734985351565	1294.43798828125	-228.6145324707032	909.7092895507815	1488.91259765625	-225.567855834961	655.1143798828126	1371.799560546875	-304.4369506835938	710.4940185546876	1522.350708007813	-317.2782897949219	750.3545532226564	1515.541259765625	-430.8065185546876	807.502136230469	1513.487548828125	-443.4157714843751	743.3428344726564	1158.144165039063	-505.9856567382814	725.7485351562501	1155.87353515625	-410.3463439941407	707.0159912109376	1145.451171875	-454.7771606445314	851.9785766601565	888.1250610351565	-473.3260192871095	777.5256958007815	895.850524902344	-522.5516967773439	879.8452148437502	809.872741699219	-468.9071044921876	785.2977294921877	807.6091308593752	-530.9903564453126	671.7727661132814	1371.923461914063	-115.8963851928711	722.2563476562501	1515.188232421875	-115.6369857788086	776.4962158203127	1516.541625976563	-8.77164936065674	829.6842041015627	1518.726806640625	0.965590834617615	787.4902954101565	1170.32666015625	76.72340393066408	768.0681762695315	1150.734985351563	-13.47834491729737	756.1555786132814	1148.405395507813	45.92659759521485	933.1594848632815	916.975280761719	53.39297485351564	853.8857421875002	914.6580200195315	100.6240310668946	970.4214477539065	832.484558105469	54.77367019653322	865.6484985351565	825.6448974609377	108.7796783447266	
